<?xml version="1.0" encoding="UTF-8" standalone="no"?>
<!-- Created with Inkscape (http://www.inkscape.org/) -->

<svg
   xmlns:dc="http://purl.org/dc/elements/1.1/"
   xmlns:cc="http://creativecommons.org/ns#"
   xmlns:rdf="http://www.w3.org/1999/02/22-rdf-syntax-ns#"
   xmlns:svg="http://www.w3.org/2000/svg"
   xmlns="http://www.w3.org/2000/svg"
   xmlns:sodipodi="http://sodipodi.sourceforge.net/DTD/sodipodi-0.dtd"
   xmlns:inkscape="http://www.inkscape.org/namespaces/inkscape"
   id="svg2"
   height="38.023659mm"
   width="196.81717mm"
   version="1.1"
   viewBox="0 0 697.38329 134.729"
   inkscape:version="0.91 r13725"
   sodipodi:docname="logo-main-transparent.svg"
   inkscape:export-filename="D:\carposplasterers\repos\carposplasterers\res\landing\images\logo-main-transparent.png"
   inkscape:export-xdpi="300"
   inkscape:export-ydpi="300">
  <defs
     id="defs13" />
  <sodipodi:namedview
     pagecolor="#ffffff"
     bordercolor="#000000"
     borderopacity="0"
     objecttolerance="10"
     gridtolerance="10"
     guidetolerance="10"
     inkscape:pageopacity="0"
     inkscape:pageshadow="2"
     inkscape:window-width="1920"
     inkscape:window-height="1027"
     id="namedview11"
     showgrid="false"
     fit-margin-top="0"
     fit-margin-left="0"
     fit-margin-right="0"
     fit-margin-bottom="0"
     inkscape:zoom="1"
     inkscape:cx="348.62457"
     inkscape:cy="71.942862"
     inkscape:window-x="1912"
     inkscape:window-y="-8"
     inkscape:window-maximized="1"
     inkscape:current-layer="text4219">
    <inkscape:grid
       type="xygrid"
       id="grid4141"
       originx="-0.00055740624"
       originy="0.0056200101" />
  </sodipodi:namedview>
  <metadata
     id="metadata7">
    <rdf:RDF>
      <cc:Work
         rdf:about="">
        <dc:format>image/svg+xml</dc:format>
        <dc:type
           rdf:resource="http://purl.org/dc/dcmitype/StillImage" />
        <dc:title></dc:title>
      </cc:Work>
    </rdf:RDF>
  </metadata>
  <g
     id="layer1"
     transform="translate(-21.060515,-687.06327)">
    <path
       inkscape:connector-curvature="0"
       style="fill:#ffffff"
       d="m 253.476,790.52988 464.96784,0.002 -2.72117,6.62698 -464.96777,-0.002 z"
       id="rect4149-1" />
    <g
       transform="scale(1.2047,0.83009)"
       style="font-size:196.25999451px;line-height:125%;font-family:'Balmoral ICG';letter-spacing:0px;word-spacing:0px;fill:#ffffff"
       id="text4136">
      <path
         d="m 135.43421,855.56618 q 0,17.46714 -12.56064,38.07444 4.9065,6.8691 4.9065,16.09332 0,13.93446 -7.45788,28.65396 -7.85039,15.30828 -19.62599,22.76616 5.8878,12.16812 17.27087,19.82226 l -1.57008,1.9626 q -11.97185,-8.24292 -18.055915,-20.80356 -1.766339,0.9813 -5.691539,0.9813 -8.24292,0 -15.30828,-8.63544 -8.24292,-9.813 -8.43918,-24.92502 -3.53268,0.39252 -4.71024,0.39252 -20.607299,0 -33.952979,-14.52324 -12.756899,-13.7382 -12.756899,-33.75672 0,-22.37364 15.700799,-38.07444 15.89706,-15.89706 38.466959,-15.89706 21.5886,0 35.130544,15.11202 10.59803,-8.24292 16.28957,-8.24292 5.69154,0 9.02796,6.08406 3.33642,5.8878 3.33642,14.91576 z m -3.9252,-4.71024 q 0,-13.93446 -8.43918,-13.93446 -6.28032,0 -13.34567,9.61674 2.9439,3.72894 6.67283,11.7756 l -2.15885,0.9813 q -1.76634,-3.9252 -6.08406,-10.7943 -17.467144,26.69136 -26.887624,75.75636 4.31772,-1.37382 12.56064,-5.8878 2.55138,-12.36438 7.654144,-20.21478 5.69154,-8.63544 13.14942,-8.63544 3.33641,0 5.29901,1.37382 11.57934,-22.37364 11.57934,-40.03704 z m -12.7569,42.1959 q -2.74763,-1.57008 -4.12145,-1.57008 -6.08406,0 -11.38308,8.04666 -4.317725,6.8691 -6.869104,17.07462 13.345684,-8.63544 22.373634,-23.5512 z m -13.73819,-48.47622 q -12.168124,-14.32698 -31.597864,-14.32698 -20.999819,0 -36.896879,15.89706 -15.700799,15.7008 -15.700799,37.09314 0,18.44844 12.168119,31.4016 12.36438,12.7569 31.205339,12.7569 1.57008,0 4.71024,-0.19626 2.15886,-47.1024 36.111844,-82.62546 z m 17.46713,58.68174 q 0,-4.71024 -1.37382,-7.06536 -9.22421,12.56064 -25.317534,23.94372 -0.9813,7.8504 -0.9813,12.16812 0,15.30828 4.906499,26.88762 10.794305,-7.65414 17.074615,-24.72876 5.69154,-15.30828 5.69154,-31.20534 z m -24.925014,56.52288 q -4.9065,-11.7756 -4.9065,-27.4764 0,-6.8691 0.58878,-10.59804 -3.53268,1.76634 -12.56064,5.49528 -1.17756,6.28032 -1.17756,10.7943 0,22.76616 13.14942,22.76616 1.76634,0 4.9065,-0.9813 z"
         id="path4144"
         inkscape:connector-curvature="0"
         style="fill:#ffffff" />
      <path
         d="m 180.78713,922.29458 q -6.67284,15.7008 -8.43918,18.6447 -4.51398,7.65414 -10.20552,7.65414 -7.06535,0 -8.43917,-10.20552 -3.14016,5.49528 -4.31772,6.8691 -2.55138,2.9439 -5.8878,2.9439 -9.813,0 -9.813,-15.11202 0,-12.36438 6.47658,-23.5512 6.67284,-11.38308 14.91576,-11.38308 4.51397,0 6.47657,7.06536 l 1.57008,-5.8878 9.813,0 -10.99056,40.03704 q -0.58878,2.15886 -0.58878,3.33642 0,2.9439 2.55138,2.9439 3.53268,0 7.8504,-8.24292 1.57008,-3.14016 6.8691,-15.89706 l 2.15886,0.78504 z m -21.39234,-13.93446 q 0,-2.55138 -1.17755,-5.10276 -1.17756,-2.55138 -2.74764,-2.55138 -2.35512,0 -4.9065,6.28032 -2.9439,7.06536 -5.8878,17.46714 -3.33642,11.18682 -3.33642,15.50454 0,5.49528 3.33642,5.49528 3.72894,0 6.67284,-6.8691 8.04665,-18.84096 8.04665,-30.22404 z"
         id="path4146"
         inkscape:connector-curvature="0"
         style="fill:#ffffff" />
      <path
         d="m 209.24177,922.29458 q -2.9439,7.65414 -9.42048,20.41104 -4.12146,5.8878 -8.8317,5.8878 -4.12146,0 -6.47658,-2.9439 -2.35512,-3.14016 -2.35512,-7.45788 0,-3.9252 4.31772,-16.28958 4.51398,-12.56064 4.51398,-16.28958 0,-2.74764 -2.15886,-4.71024 -2.15886,6.8691 -8.24292,21.39234 l -2.15886,-0.78504 q 3.33642,-8.24292 8.43918,-22.37364 -3.33642,-3.33642 -3.33642,-6.67284 0,-2.74764 1.57008,-5.10276 1.76634,-2.35512 3.9252,-2.35512 3.33642,0 3.33642,3.9252 0,2.35512 -2.55138,9.22422 8.63544,5.8878 8.63544,11.7756 0,4.51398 -4.31772,18.05592 -4.12146,13.54194 -4.12146,15.50454 0,2.74764 2.15886,2.74764 3.53268,0 7.8504,-8.24292 1.76634,-3.53268 7.06536,-16.48584 l 2.15886,0.78504 z"
         id="path4148"
         inkscape:connector-curvature="0"
         style="fill:#ffffff" />
      <path
         d="m 249.12701,922.29458 q -2.9439,7.8504 -9.61674,20.6073 -3.9252,5.69154 -9.22422,5.69154 -8.63544,0 -8.63544,-10.20552 0,-4.71024 4.71024,-16.6821 4.71024,-12.16812 4.71024,-16.48584 0,-3.14016 -2.15886,-3.14016 -3.33642,0 -7.65414,8.24292 -3.72894,7.06536 -6.08406,15.89706 l -17.46714,63.7845 -9.813,0 28.65396,-102.64398 9.61674,0 -5.10276,18.44844 q 5.8878,-7.06536 11.18682,-7.06536 2.74764,0 4.9065,2.55138 2.15886,2.35512 2.15886,6.08406 0,5.49528 -4.9065,19.03722 -4.71024,13.54194 -4.71024,15.7008 0,3.9252 2.9439,3.9252 3.33642,0 7.45788,-8.24292 1.17756,-2.35512 6.8691,-16.28958 l 2.15886,0.78504 z"
         id="path4150"
         inkscape:connector-curvature="0"
         style="fill:#ffffff" />
      <path
         d="m 281.91317,922.29458 q -4.31772,11.97186 -10.59804,11.57934 -6.08406,14.7195 -14.13072,14.7195 -5.49528,0 -8.8317,-4.51398 -3.33642,-4.51398 -3.33642,-11.18682 0,-11.97186 7.06536,-23.15868 7.06536,-11.18682 15.50454,-11.18682 9.02796,0 9.02796,12.16812 0,4.12146 -4.12146,20.6073 3.72894,0.39252 7.26162,-9.813 l 2.15886,0.78504 z m -7.65414,-10.40178 q 0,-10.59804 -5.49528,-10.59804 -3.72894,0 -7.06536,7.65414 -3.14016,7.65414 -6.08406,18.25218 -2.55138,9.813 -2.55138,13.54194 0,5.69154 4.31772,5.69154 6.67284,0 11.7756,-12.95316 -3.9252,-1.37382 -3.9252,-6.47658 0,-3.72894 1.9626,-6.67284 1.9626,-2.9439 4.71024,-2.9439 l 1.76634,0 q 0.58878,-4.12146 0.58878,-5.49528 z"
         id="path4152"
         inkscape:connector-curvature="0"
         style="fill:#ffffff" />
      <path
         d="m 298.31734,843.00554 q 0,11.7756 -14.13072,21.19608 l -1.17756,-1.37382 q 9.61674,-6.8691 9.61674,-11.57934 0,-1.76634 -2.35512,-3.9252 -2.15886,-2.15886 -2.15886,-4.9065 0,-2.35512 1.57008,-4.12146 1.76634,-1.9626 4.12146,-1.9626 4.51398,0 4.51398,6.67284 z"
         id="path4154"
         inkscape:connector-curvature="0"
         style="fill:#ffffff" />
      <path
         d="m 320.64192,895.2107 q 0,4.71024 -4.12146,4.71024 -2.35512,0 -4.12146,-1.76634 -1.76634,-1.9626 -2.55138,-1.9626 -2.55138,0 -2.55138,3.72894 0,3.33642 2.74764,11.18682 2.9439,7.65414 2.9439,12.95316 0,9.61674 -6.08406,17.27088 -5.8878,7.45788 -14.32698,7.45788 -11.7756,0 -11.7756,-10.99056 0,-4.9065 2.9439,-8.63544 2.9439,-3.9252 7.45788,-3.9252 5.49528,0 5.49528,4.9065 0,4.9065 -5.10276,4.9065 -0.9813,0 -2.55138,-0.58878 -1.37382,-0.78504 -2.35512,-0.78504 -2.9439,0 -2.9439,5.10276 0,2.74764 1.9626,5.10276 1.9626,2.15886 4.51398,2.15886 5.8878,0 10.59804,-12.95316 4.51398,-12.16812 4.71024,-24.92502 0,-1.76634 -0.39252,-7.45788 -4.51398,6.28032 -10.7943,21.5886 l -2.15886,-0.78504 q 6.67284,-15.7008 10.59804,-21.5886 5.8878,-9.22422 12.56064,-9.22422 5.29902,0 5.29902,4.51398 z"
         id="path4156"
         inkscape:connector-curvature="0"
         style="fill:#ffffff" />
    </g>
    <path
       transform="matrix(1,1.7822e-5,-0.37737,0.92606,0,0)"
       style="fill:#ffffff"
       d="m 472.20001,853.64001 86.152,0 0,7.1561 -86.152,0 z"
       id="rect4149"
       inkscape:connector-curvature="0" />
    <g
       style="font-weight:bold;font-size:30px;line-height:125%;font-family:'Yu Gothic UI';letter-spacing:0px;word-spacing:0px;fill:#ffffff;stroke:#000000;stroke-width:1px"
       id="text4219">
      <path
         d="m 421.26428,780.31952 0,7.61719 -3.47168,0 0,-21.00586 6.37207,0 q 3.61817,0 5.61035,1.68457 1.99219,1.68457 1.99219,4.74609 0,3.06152 -2.08008,5.00977 -2.08007,1.94824 -5.625,1.94824 l -2.79785,0 z m 0,-10.51758 0,7.67578 2.25586,0 q 2.24121,0 3.41309,-1.04004 1.17187,-1.04004 1.17187,-2.92968 0,-3.70606 -4.30664,-3.70606 l -2.53418,0 z"
         id="path4161"
         inkscape:connector-curvature="0"
         style="fill:#ffffff" />
      <path
         d="m 438.34436,787.93671 -3.41309,0 0,-22.20703 3.41309,0 0,22.20703 z"
         id="path4163"
         inkscape:connector-curvature="0"
         style="fill:#ffffff" />
      <path
         d="m 454.29651,787.93671 -3.2959,0 0,-2.34375 -0.0586,0 q -1.55274,2.69531 -4.55567,2.69531 -2.21191,0 -3.47168,-1.20117 -1.24511,-1.20117 -1.24511,-3.17871 0,-4.24805 4.89257,-4.95118 l 4.45313,-0.62988 q 0,-3.20801 -3.04688,-3.20801 -2.68066,0 -4.83398,1.84571 l 0,-2.97364 q 2.37305,-1.40625 5.47852,-1.40625 5.68359,0 5.68359,5.59571 l 0,9.75586 z m -3.28125,-7.36817 -3.14942,0.43946 q -1.46484,0.19043 -2.21191,0.71777 -0.73242,0.51269 -0.73242,1.81641 0,0.95214 0.67383,1.56738 0.68847,0.60058 1.83105,0.60058 1.55274,0 2.56348,-1.08398 1.02539,-1.09863 1.02539,-2.75391 l 0,-1.30371 z"
         id="path4165"
         inkscape:connector-curvature="0"
         style="fill:#ffffff" />
      <path
         d="m 457.48987,787.46796 0,-3.14942 q 1.9043,1.4502 4.2041,1.4502 3.07617,0 3.07617,-1.81641 0,-0.51269 -0.26367,-0.86426 -0.26367,-0.36621 -0.71777,-0.64453 -0.43946,-0.27832 -1.05469,-0.49804 -0.60059,-0.21973 -1.34766,-0.49805 -0.92285,-0.36621 -1.66992,-0.77637 -0.73242,-0.41015 -1.23047,-0.92285 -0.4834,-0.52734 -0.73242,-1.18652 -0.24902,-0.65918 -0.24902,-1.53809 0,-1.08398 0.51269,-1.9043 0.5127,-0.83496 1.37696,-1.3916 0.86425,-0.57129 1.96289,-0.84961 1.09863,-0.29297 2.2705,-0.29297 2.08008,0 3.72071,0.62989 l 0,2.97363 q -1.58203,-1.08398 -3.63282,-1.08398 -0.64453,0 -1.17187,0.13183 -0.5127,0.13184 -0.87891,0.36621 -0.36621,0.23438 -0.57129,0.57129 -0.20507,0.32227 -0.20507,0.71777 0,0.4834 0.20507,0.82032 0.20508,0.33691 0.60059,0.60058 0.41016,0.24903 0.9668,0.46875 0.57129,0.20508 1.30371,0.4541 0.96679,0.39551 1.72851,0.80567 0.77637,0.41015 1.31836,0.9375 0.54199,0.51269 0.83496,1.20117 0.29297,0.67383 0.29297,1.61133 0,1.14258 -0.52734,1.99219 -0.52735,0.84961 -1.40625,1.40625 -0.87891,0.55664 -2.03613,0.82031 -1.14258,0.27832 -2.417,0.27832 -2.46093,0 -4.26269,-0.82031 z"
         id="path4167"
         inkscape:connector-curvature="0"
         style="fill:#ffffff" />
      <path
         d="m 479.28674,787.77557 q -0.99609,0.49805 -2.62207,0.49805 -4.36523,0 -4.36523,-4.18945 l 0,-8.48145 -2.50488,0 0,-2.66601 2.50488,0 0,-3.47168 3.39844,-0.9668 0,4.43848 3.58886,0 0,2.66601 -3.58886,0 0,7.5 q 0,1.33301 0.48339,1.9043 0.4834,0.57129 1.61133,0.57129 0.86426,0 1.49414,-0.49805 l 0,2.69531 z"
         id="path4169"
         inkscape:connector-curvature="0"
         style="fill:#ffffff" />
      <path
         d="m 494.91663,781.35956 -10.22461,0 q 0.0586,2.08008 1.27441,3.20801 1.23047,1.12793 3.36914,1.12793 2.40235,0 4.40918,-1.43555 l 0,2.73926 q -2.05078,1.28906 -5.41992,1.28906 -3.31055,0 -5.2002,-2.03613 -1.875,-2.05079 -1.875,-5.75684 0,-3.50098 2.06543,-5.69824 2.08008,-2.21192 5.15625,-2.21192 3.07618,0 4.76075,1.97754 1.68457,1.97754 1.68457,5.49317 l 0,1.30371 z m -3.28125,-2.40235 q -0.0147,-1.83105 -0.86426,-2.84179 -0.84961,-1.02539 -2.34375,-1.02539 -1.46485,0 -2.49024,1.06933 -1.01074,1.06934 -1.24511,2.79785 l 6.94336,0 z"
         id="path4171"
         inkscape:connector-curvature="0"
         style="fill:#ffffff" />
      <path
         d="m 506.8551,776.17401 q -0.61523,-0.4834 -1.77246,-0.4834 -1.50879,0 -2.51953,1.36231 -1.01074,1.3623 -1.01074,3.70605 l 0,7.17774 -3.39844,0 0,-15 3.39844,0 0,3.09082 0.0586,0 q 0.49805,-1.58203 1.52344,-2.46094 1.04004,-0.89356 2.31445,-0.89356 0.92285,0 1.40625,0.27832 l 0,3.22266 z"
         id="path4173"
         inkscape:connector-curvature="0"
         style="fill:#ffffff" />
      <path
         d="m 521.98694,781.35956 -10.22461,0 q 0.0586,2.08008 1.27441,3.20801 1.23047,1.12793 3.36914,1.12793 2.40235,0 4.40918,-1.43555 l 0,2.73926 q -2.05078,1.28906 -5.41992,1.28906 -3.31055,0 -5.20019,-2.03613 -1.875,-2.05079 -1.875,-5.75684 0,-3.50098 2.06543,-5.69824 2.08007,-2.21192 5.15625,-2.21192 3.07617,0 4.76074,1.97754 1.68457,1.97754 1.68457,5.49317 l 0,1.30371 z m -3.28125,-2.40235 q -0.0146,-1.83105 -0.86426,-2.84179 -0.84961,-1.02539 -2.34375,-1.02539 -1.46484,0 -2.49023,1.06933 -1.01075,1.06934 -1.24512,2.79785 l 6.94336,0 z"
         id="path4175"
         inkscape:connector-curvature="0"
         style="fill:#ffffff" />
      <path
         d="m 533.92542,776.17401 q -0.61524,-0.4834 -1.77247,-0.4834 -1.50878,0 -2.51953,1.36231 -1.01074,1.3623 -1.01074,3.70605 l 0,7.17774 -3.39844,0 0,-15 3.39844,0 0,3.09082 0.0586,0 q 0.49805,-1.58203 1.52344,-2.46094 1.04004,-0.89356 2.31446,-0.89356 0.92285,0 1.40625,0.27832 l 0,3.22266 z"
         id="path4177"
         inkscape:connector-curvature="0"
         style="fill:#ffffff" />
      <path
         d="m 535.41956,787.46796 0,-3.14942 q 1.90429,1.4502 4.2041,1.4502 3.07617,0 3.07617,-1.81641 0,-0.51269 -0.26367,-0.86426 -0.26367,-0.36621 -0.71778,-0.64453 -0.43945,-0.27832 -1.05468,-0.49804 -0.60059,-0.21973 -1.34766,-0.49805 -0.92285,-0.36621 -1.66992,-0.77637 -0.73242,-0.41015 -1.23047,-0.92285 -0.4834,-0.52734 -0.73242,-1.18652 -0.24903,-0.65918 -0.24903,-1.53809 0,-1.08398 0.5127,-1.9043 0.51269,-0.83496 1.37695,-1.3916 0.86426,-0.57129 1.96289,-0.84961 1.09864,-0.29297 2.27051,-0.29297 2.08008,0 3.7207,0.62989 l 0,2.97363 q -1.58203,-1.08398 -3.63281,-1.08398 -0.64453,0 -1.17187,0.13183 -0.5127,0.13184 -0.87891,0.36621 -0.36621,0.23438 -0.57129,0.57129 -0.20508,0.32227 -0.20508,0.71777 0,0.4834 0.20508,0.82032 0.20508,0.33691 0.60059,0.60058 0.41015,0.24903 0.96679,0.46875 0.57129,0.20508 1.30372,0.4541 0.96679,0.39551 1.72851,0.80567 0.77637,0.41015 1.31836,0.9375 0.54199,0.51269 0.83496,1.20117 0.29297,0.67383 0.29297,1.61133 0,1.14258 -0.52734,1.99219 -0.52735,0.84961 -1.40625,1.40625 -0.87891,0.55664 -2.03614,0.82031 -1.14257,0.27832 -2.41699,0.27832 -2.46094,0 -4.26269,-0.82031 z"
         id="path4179"
         inkscape:connector-curvature="0"
         style="fill:#ffffff" />
      <path
         d="m 572.33362,787.95135 -1.91895,-2.03613 q -0.62988,0.55664 -1.40625,1.01074 -0.76172,0.43946 -1.62597,0.74707 -0.84961,0.30762 -1.77246,0.46875 -0.92286,0.16114 -1.86036,0.16114 -1.58203,0 -2.85644,-0.41016 -1.27442,-0.41016 -2.18262,-1.15723 -0.89355,-0.76171 -1.3916,-1.8164 -0.4834,-1.05469 -0.4834,-2.34375 0,-3.61817 4.80469,-6.09375 -2.21192,-2.73926 -2.21192,-4.86328 0,-1.09864 0.42481,-2.02149 0.43945,-0.92285 1.21582,-1.58203 0.77637,-0.67383 1.8457,-1.05469 1.08399,-0.38086 2.3584,-0.38086 1.21582,0 2.19727,0.33692 0.99609,0.33691 1.69922,0.9375 0.70312,0.60058 1.08398,1.43555 0.38086,0.82031 0.38086,1.7871 0,0.95215 -0.24902,1.72852 -0.23438,0.76172 -0.77637,1.43555 -0.52734,0.67383 -1.40625,1.28906 -0.86426,0.61523 -2.12402,1.23047 1.15722,1.24512 2.3291,2.47558 1.18652,1.23047 2.40234,2.47559 0.30762,-0.46875 0.55664,-1.05469 0.26367,-0.58593 0.43945,-1.23047 0.19043,-0.64453 0.29297,-1.333 0.10254,-0.68848 0.10254,-1.34766 l 2.97364,0 q 0,4.02832 -2.54883,7.0459 0.65918,0.70312 1.65527,1.72851 1.01074,1.02539 2.37305,2.43164 l -4.32129,0 z m -4.76074,-16.61132 q 0,-0.4834 -0.19043,-0.90821 -0.17578,-0.4248 -0.4834,-0.73242 -0.30762,-0.32226 -0.71778,-0.49805 -0.41015,-0.19042 -0.8789,-0.19042 -0.61524,0 -1.12793,0.19042 -0.49805,0.17579 -0.86426,0.52735 -0.35156,0.33691 -0.55664,0.80566 -0.19043,0.46875 -0.19043,1.04004 0,1.34766 1.91895,3.48633 3.09082,-1.58203 3.09082,-3.7207 z m 1.06933,12.6709 q -1.71387,-1.77247 -5.36133,-5.7129 -1.61132,0.83497 -2.3291,1.78711 -0.70312,0.95215 -0.70312,2.22657 0,0.77636 0.27832,1.40625 0.29297,0.61523 0.79101,1.05468 0.49805,0.43946 1.17188,0.67383 0.68847,0.23438 1.47949,0.23438 2.75391,0 4.67285,-1.66992 z"
         id="path4181"
         inkscape:connector-curvature="0"
         style="fill:#ffffff" />
      <path
         d="m 587.65588,787.93671 0,-21.00586 6.06446,0 q 11.61621,0 11.61621,10.23925 0,4.86329 -3.22266,7.82227 -3.22265,2.94434 -8.64258,2.94434 l -5.81543,0 z m 3.47168,-18.04688 0,15.10254 2.78321,0 q 3.67675,0 5.71289,-2.02148 2.05078,-2.02149 2.05078,-5.71289 0,-7.36817 -7.63184,-7.36817 l -2.91504,0 z"
         id="path4183"
         inkscape:connector-curvature="0"
         style="fill:#ffffff" />
      <path
         d="m 617.4801,776.17401 q -0.61523,-0.4834 -1.77246,-0.4834 -1.50879,0 -2.51953,1.36231 -1.01074,1.3623 -1.01074,3.70605 l 0,7.17774 -3.39844,0 0,-15 3.39844,0 0,3.09082 0.0586,0 q 0.49805,-1.58203 1.52344,-2.46094 1.04004,-0.89356 2.31445,-0.89356 0.92285,0 1.40625,0.27832 l 0,3.22266 z"
         id="path4185"
         inkscape:connector-curvature="0"
         style="fill:#ffffff" />
      <path
         d="m 632.90491,772.93671 -6.76758,17.40234 q -2.10938,4.6582 -5.91797,4.6582 -1.06934,0 -1.78711,-0.19043 l 0,-2.82714 q 0.80567,0.26367 1.46484,0.26367 1.9043,0 2.8418,-1.875 l 1.01074,-2.46094 -5.96191,-14.9707 3.76465,0 3.57422,10.89843 q 0.0586,0.20508 0.26367,1.08399 l 0.0732,0 q 0.0732,-0.33692 0.26367,-1.05469 l 3.75,-10.92773 3.42774,0 z"
         id="path4187"
         inkscape:connector-curvature="0"
         style="fill:#ffffff" />
      <path
         d="m 638.5592,787.93671 -3.41308,0 0,-22.20703 3.41308,0 0,22.20703 z"
         id="path4189"
         inkscape:connector-curvature="0"
         style="fill:#ffffff" />
      <path
         d="m 644.71155,769.78729 q -0.83496,0 -1.43555,-0.54199 -0.58594,-0.54199 -0.58594,-1.37695 0,-0.83496 0.58594,-1.3916 0.60059,-0.55665 1.43555,-0.55665 0.86426,0 1.46484,0.55665 0.60059,0.55664 0.60059,1.3916 0,0.79101 -0.60059,1.3623 -0.60058,0.55664 -1.46484,0.55664 z m 1.68457,18.14942 -3.39844,0 0,-15 3.39844,0 0,15 z"
         id="path4191"
         inkscape:connector-curvature="0"
         style="fill:#ffffff" />
      <path
         d="m 664.20862,787.93671 -3.39844,0 0,-8.45215 q 0,-4.2041 -2.97363,-4.2041 -1.55274,0 -2.56348,1.17187 -1.01074,1.15723 -1.01074,2.92969 l 0,8.55469 -3.41309,0 0,-15 3.41309,0 0,2.49023 0.0586,0 q 1.68457,-2.8418 4.86328,-2.8418 2.44629,0 3.73536,1.59668 1.28906,1.58203 1.28906,4.58496 l 0,9.16993 z"
         id="path4193"
         inkscape:connector-curvature="0"
         style="fill:#ffffff" />
      <path
         d="m 670.08264,769.78729 q -0.83496,0 -1.43555,-0.54199 -0.58593,-0.54199 -0.58593,-1.37695 0,-0.83496 0.58593,-1.3916 0.60059,-0.55665 1.43555,-0.55665 0.86426,0 1.46485,0.55665 0.60058,0.55664 0.60058,1.3916 0,0.79101 -0.60058,1.3623 -0.60059,0.55664 -1.46485,0.55664 z m 1.68457,18.14942 -3.39844,0 0,-15 3.39844,0 0,15 z"
         id="path4195"
         inkscape:connector-curvature="0"
         style="fill:#ffffff" />
      <path
         d="m 689.57971,787.93671 -3.39844,0 0,-8.45215 q 0,-4.2041 -2.97363,-4.2041 -1.55273,0 -2.56347,1.17187 -1.01075,1.15723 -1.01075,2.92969 l 0,8.55469 -3.41308,0 0,-15 3.41308,0 0,2.49023 0.0586,0 q 1.68457,-2.8418 4.86328,-2.8418 2.44629,0 3.73535,1.59668 1.28906,1.58203 1.28906,4.58496 l 0,9.16993 z"
         id="path4197"
         inkscape:connector-curvature="0"
         style="fill:#ffffff" />
      <path
         d="m 707.39221,786.73553 q 0,8.26172 -8.30566,8.26172 -2.92969,0 -5.11231,-0.98144 l 0,-3.10547 q 2.46094,1.40625 4.67285,1.40625 5.34668,0 5.34668,-5.25879 l 0,-1.64062 -0.0586,0 q -1.68457,2.87109 -5.06836,2.87109 -2.73926,0 -4.42383,-1.99219 -1.66992,-2.00683 -1.66992,-5.37598 0,-3.82324 1.80176,-6.0791 1.80176,-2.25586 4.95117,-2.25586 2.97363,0 4.40918,2.43164 l 0.0586,0 0,-2.08007 3.39844,0 0,13.79882 z m -3.36914,-5.66894 0,-1.94824 q 0,-1.58203 -1.05469,-2.69532 -1.04004,-1.12793 -2.60742,-1.12793 -1.93359,0 -3.03222,1.43555 -1.08399,1.4209 -1.08399,3.98438 0,2.21191 1.04004,3.54492 1.05469,1.31836 2.7832,1.31836 1.75782,0 2.85645,-1.25977 1.09863,-1.27441 1.09863,-3.25195 z"
         id="path4199"
         inkscape:connector-curvature="0"
         style="fill:#ffffff" />
    </g>
  </g>
</svg>
